<?xml version="1.0" encoding="UTF-8" standalone="no"?>
<!-- Created with Inkscape (http://www.inkscape.org/) -->

<svg
   xmlns:dc="http://purl.org/dc/elements/1.1/"
   xmlns:cc="http://creativecommons.org/ns#"
   xmlns:rdf="http://www.w3.org/1999/02/22-rdf-syntax-ns#"
   xmlns:svg="http://www.w3.org/2000/svg"
   xmlns="http://www.w3.org/2000/svg"
   xmlns:sodipodi="http://sodipodi.sourceforge.net/DTD/sodipodi-0.dtd"
   xmlns:inkscape="http://www.inkscape.org/namespaces/inkscape"
   version="1.1"
   id="svg2"
   xml:space="preserve"
   width="877.95599"
   height="653.96936"
   viewBox="0 0 877.95599 653.96936"
   sodipodi:docname="FreeVector-Box-Logo.ai"
   inkscape:version="0.92.2 5c3e80d, 2017-08-06"><metadata
     id="metadata8"><rdf:RDF><cc:Work
         rdf:about=""><dc:format>image/svg+xml</dc:format><dc:type
           rdf:resource="http://purl.org/dc/dcmitype/StillImage" /><dc:title></dc:title></cc:Work></rdf:RDF></metadata><defs
     id="defs6"><clipPath
       clipPathUnits="userSpaceOnUse"
       id="clipPath18"><path
         d="M 0,490.477 H 658.467 V 0 H 0 Z"
         id="path16"
         inkscape:connector-curvature="0" /></clipPath><clipPath
       clipPathUnits="userSpaceOnUse"
       id="clipPath26"><path
         d="M 4.88281e-4,490.477 H 658.468 V 9.76562e-4 H 4.88281e-4 Z"
         id="path24"
         inkscape:connector-curvature="0" /></clipPath><linearGradient
       x1="0"
       y1="0"
       x2="1"
       y2="0"
       gradientUnits="userSpaceOnUse"
       gradientTransform="matrix(0,-1109.604,1109.604,0,329.23437,692.5415)"
       spreadMethod="pad"
       id="linearGradient36"><stop
         style="stop-opacity:1;stop-color:#40a8de"
         offset="0"
         id="stop32" /><stop
         style="stop-opacity:1;stop-color:#60c9e0"
         offset="1"
         id="stop34" /></linearGradient><radialGradient
       fx="0"
       fy="0"
       cx="0"
       cy="0"
       r="1"
       gradientUnits="userSpaceOnUse"
       gradientTransform="matrix(-254.88731,0,0,-254.88731,301.66797,41.748047)"
       spreadMethod="pad"
       id="radialGradient68"><stop
         style="stop-opacity:1;stop-color:#eb008b"
         offset="0"
         id="stop64" /><stop
         style="stop-opacity:1;stop-color:#c60077"
         offset="1"
         id="stop66" /></radialGradient></defs><sodipodi:namedview
     pagecolor="#ffffff"
     bordercolor="#666666"
     borderopacity="1"
     objecttolerance="10"
     gridtolerance="10"
     guidetolerance="10"
     inkscape:pageopacity="0"
     inkscape:pageshadow="2"
     inkscape:window-width="1285"
     inkscape:window-height="790"
     id="namedview4"
     showgrid="false"
     inkscape:zoom="0.36087318"
     inkscape:cx="438.978"
     inkscape:cy="326.98468"
     inkscape:window-x="0"
     inkscape:window-y="0"
     inkscape:window-maximized="0"
     inkscape:current-layer="g52" /><g
     id="g10"
     inkscape:groupmode="layer"
     inkscape:label="FreeVector-Box-Logo"
     transform="matrix(1.3333333,0,0,-1.3333333,0,653.96933)"><g
       id="g52"><g
         id="g54"
         style="fill:#000000"><g
           id="g60"
           style="fill:#000000"><g
             id="g62"
             style="fill:#000000"><path
               d="m 332.659,438.678 c 0,0 -150.641,-43.994 -178.641,-51.984 v 0 c -27.995,-8.005 -24,-26.669 -24,-26.669 v 0 -185.307 c 0,-21.338 18.667,-37.335 18.667,-37.335 v 0 c 0,0 77.313,-47.993 118.645,-73.331 v 0 c 41.33,-25.325 62.664,-9.326 62.664,-9.326 v 0 c 0,0 138.654,46.657 168.611,57.576 v 0 c 29.96,10.924 30.041,39.747 30.041,39.747 v 0 187.985 c -1.34,21.325 -26.415,32.059 -26.415,32.059 v 0 c 0,0 -77.58,39.922 -109.743,57.512 v 0 c -16.336,8.933 -31.521,11.131 -42.504,11.131 v 0 c -10.632,0 -17.325,-2.058 -17.325,-2.058 M 276.68,293.769 c 0,0 -76.513,41.973 -106.819,61.884 v 0 c -22.644,14.883 2.594,21.99 2.594,21.99 v 0 c 0,0 123.587,35.221 155.595,44.546 v 0 c 31.995,9.334 47.528,-0.771 47.528,-0.771 v 0 l 118.67,-58.074 c 27.16,-14.227 1.324,-20.578 1.324,-20.578 v 0 c 0,0 -13.158,-4.106 -32.054,-10.048 v 0 l 0.503,-128.875 -39.22,35.94 -56.856,-76.934 1.096,139.712 c -13.733,-4.495 -25.338,-8.391 -32.586,-10.995 v 0 c -9.901,-3.563 -19.196,-4.816 -27.367,-4.816 v 0 c -19.347,-10e-4 -32.408,7.019 -32.408,7.019 M 273.298,75.883 c -23.743,12.706 -110.225,66.971 -110.225,66.971 v 0 c 0,0 -19.487,9.31 -19.487,30.52 v 0 155.153 c 0,0 -2.557,27.126 18.643,14.411 v 0 L 274.98,275.117 c 0,0 20.368,-8.484 20.368,-33.068 v 0 c 0,-24.588 0.832,-151.753 0.832,-151.753 v 0 c 0,0 0.556,-17.808 -11.846,-17.809 v 0 c -2.908,0 -6.528,0.979 -11.036,3.396"
               style="fill:#000000;stroke:none"
               id="path70"
               inkscape:connector-curvature="0" /></g></g></g></g></g></svg>